solid square
facet normal -0.0 -1.0 -0.0
outer loop
vertex 24.1 -24.1 3.0
vertex 0.0 -24.1 0.0
vertex 24.1 -24.1 0.0
endloop
endfacet
facet normal -0.0 -1.0 -0.0
outer loop
vertex 0.0 -24.1 0.0
vertex 24.1 -24.1 3.0
vertex 0.0 -24.1 3.0
endloop
endfacet
facet normal 1.0 0.0 0.0
outer loop
vertex 24.1 0.0 0.0
vertex 24.1 -24.1 3.0
vertex 24.1 -24.1 0.0
endloop
endfacet
facet normal 1.0 0.0 0.0
outer loop
vertex 24.1 -24.1 3.0
vertex 24.1 0.0 0.0
vertex 24.1 0.0 3.0
endloop
endfacet
facet normal -0.0 1.0 0.0
outer loop
vertex 0.0 0.0 3.0
vertex 24.1 0.0 0.0
vertex 0.0 0.0 0.0
endloop
endfacet
facet normal -0.0 1.0 0.0
outer loop
vertex 24.1 0.0 0.0
vertex 0.0 0.0 3.0
vertex 24.1 0.0 3.0
endloop
endfacet
facet normal -1.0 0.0 0.0
outer loop
vertex 0.0 0.0 3.0
vertex 0.0 -24.1 0.0
vertex 0.0 -24.1 3.0
endloop
endfacet
facet normal -1.0 0.0 0.0
outer loop
vertex 0.0 -24.1 0.0
vertex 0.0 0.0 3.0
vertex 0.0 0.0 0.0
endloop
endfacet
facet normal 0.0 0.0 -1.0
outer loop
vertex 24.1 0.0 0.0
vertex 0.0 -24.1 0.0
vertex 0.0 0.0 0.0
endloop
endfacet
facet normal 0.0 0.0 -1.0
outer loop
vertex 0.0 -24.1 0.0
vertex 24.1 0.0 0.0
vertex 24.1 -24.1 0.0
endloop
endfacet
facet normal -0.0 -0.0 1.0
outer loop
vertex 24.1 -24.1 3.0
vertex 0.0 0.0 3.0
vertex 0.0 -24.1 3.0
endloop
endfacet
facet normal -0.0 -0.0 1.0
outer loop
vertex 0.0 0.0 3.0
vertex 24.1 -24.1 3.0
vertex 24.1 0.0 3.0
endloop
endfacet
endsolid square
